<svg xmlns="http://www.w3.org/2000/svg" width="476px" height="476px" viewBox="0 0 476.286886 476.286886" version="1.1" id="svg5" xml:space="preserve" data-square-offset-x="73.68595299999998" data-square-offset-y="70.436793"><defs id="defs2"/><g id="layer1"><path style="fill:#000000;stroke-width:1" d="m 226.61095300000017 405.74729299999956 c -19.7622,-1.1237 -39.6268,-6.2905 -57.6881,-15.0048 -23.7819,-11.475 -46.0374,-29.7109 -61.2406,-50.1788 -9.9093,-13.3421 -18.8662,-29.9805 -23.9677,-44.5259 -4.7255,-13.4682 -7.5858,-26.6634 -9.4916,-43.7813 -0.7137,-6.4176 -0.7182,-21.4129 0,-28.4429 1.1043,-10.9318 2.1894,-17.8637 4.2629,-27.2517 4.4182,-20.0039 11.009,-35.893 21.6443,-52.1827 9.6199,-14.7356 22.2499,-28.4654 36.6921,-39.8871 18.5645,-14.6826 36.9578,-23.4076 62.6804,-29.7338 19.7599,-4.8599 41.8601,-5.6449 62.8549,-2.2328 9.433,1.5329 19.6766,4.184 28.4478,7.3618 20.9092,7.5753 37.6118,17.0201 53.7538,30.395 4.9721,4.1196 16.016,15.0451 19.6271,19.4163 13.1624,15.9333 23.8236,35.2821 29.9404,54.3383 3.8003,11.8367 5.9368,21.9778 7.7851,36.9472 0.6597,5.3354 0.9231,22.3518 0.4447,28.6361 -2.1366,28.0771 -11.3715,56.3261 -26.0288,79.6259 -11.1846,17.7774 -25.037,32.3939 -42.5107,44.8515 -24.7781,17.6666 -51.2099,27.9912 -79.6498,31.1119 -4.2685,0.4684 -22.5076,0.8245 -27.5495,0.5378 z m 6.978,-6.0598 c 0.5144,-0.184 0.4761,-0.2639 -0.3726,-0.7646 -0.5201,-0.3077 -0.9456,-0.7348 -0.9456,-0.9492 0,-0.5919 0.9771,-0.8509 5.2737,-1.3965 6.7191,-0.8533 12.8731,-2.5679 13.9425,-3.885 0.5516,-0.6781 1.6874,-0.961 13.2536,-3.2988 15.0119,-3.0342 18.8864,-3.708 21.3268,-3.708 2.2795,-1e-4 2.7545,0.4181 2.0409,1.7982 -0.5482,1.06 -0.5933,1.0745 1.9417,-0.6293 0.9006,-0.6056 2.4709,-1.5183 3.4896,-2.0282 1.0198,-0.51 2.8952,-1.5449 4.1706,-2.2998 3.5728,-2.1165 6.8857,-3.7138 12.8821,-6.2117 13.2637,-5.5246 23.2146,-10.979 33.6044,-18.4192 4.174,-2.9889 4.5241,-3.1847 5.6982,-3.1847 0.7969,0 0.9129,0.1036 0.9117,0.819 0,0.4505 -0.2701,1.2601 -0.5988,1.7992 -1.0649,1.746 0.1925,0.6974 4.6332,-3.8654 16.303,-16.7487 29.0793,-38.1739 37.0603,-62.1472 2.1545,-6.4742 5.3278,-18.2161 5.8174,-21.532 0.2026,-1.3664 0.1925,-1.3873 -0.7204,-1.5879 -0.5088,-0.1114 -1.0683,-0.4703 -1.2427,-0.7969 -0.4222,-0.7879 -1.6649,-4.9451 -2.257,-7.5483 -0.26,-1.1466 -0.8589,-2.8517 -1.3294,-3.7888 -0.8713,-1.7326 -1.0975,-2.9124 -0.5583,-2.9124 0.1632,0 0.2971,0.108 0.2971,0.2395 0,0.3857 1.8045,3.1191 1.9576,2.9658 0.079,-0.077 -0.1475,-1.2649 -0.4987,-2.6403 -0.5471,-2.1442 -0.6675,-3.7328 -0.8431,-11.138 -0.1126,-4.7505 -0.3062,-8.8585 -0.43,-9.1291 -0.125,-0.2705 -0.5032,-0.5642 -0.842,-0.6527 -0.5617,-0.1469 -0.5989,-0.3114 -0.4278,-1.8908 0.2252,-2.061 -0.1148,-2.9009 -0.6754,-1.6704 -0.3399,0.7449 -0.4018,0.7713 -0.6743,0.2849 -0.1744,-0.3121 -0.2172,-1.2543 -0.1013,-2.2556 0.2218,-1.9123 -0.1609,-3.7787 -0.9838,-4.7944 -0.5291,-0.6542 -0.5381,-0.6445 -2.3853,2.759 -1.0198,1.8785 -3.0877,6.2825 -4.5938,9.7866 l -2.741,6.3712 0.09,4.6403 c 0.079,4.0663 0,4.8694 -0.5358,6.4906 -0.3433,1.0176 -0.8138,2.8445 -1.0468,4.0599 -0.2319,1.2154 -0.582,2.5071 -0.7756,2.8704 -0.3276,0.6113 -0.3816,0.6225 -0.7272,0.1504 -0.2049,-0.2806 -0.8611,-2.4609 -1.4577,-4.8453 -0.5966,-2.3842 -1.3992,-4.9599 -1.782,-5.7234 -0.6731,-1.3405 -2.3233,-7.7214 -2.7094,-10.4724 -0.2173,-1.5482 -1.2889,-7.0414 -1.5276,-7.8309 -0.1407,-0.4658 -0.3084,-0.4013 -1.3102,0.5044 -1.37,1.237 -2.8761,2.0651 -3.099,1.7039 -0.09,-0.1427 -0.3073,-1.248 -0.4874,-2.4561 -0.6945,-4.6663 -0.6675,-4.582 -1.4769,-4.5491 -0.4063,0.017 -1.3857,0.2148 -2.1781,0.4406 -1.2518,0.3571 -1.4713,0.3532 -1.6919,-0.03 -0.1396,-0.2423 -1.3013,-1.7847 -2.5823,-3.4275 -1.2799,-1.6428 -2.5293,-3.2776 -2.7747,-3.6328 l -0.4469,-0.6461 -2.2334,0.7618 c -3.1608,1.0779 -6.2328,1.239 -8.3254,0.4365 l -1.6254,-0.6228 -0.645,0.6061 c -0.3546,0.3334 -0.8938,1.0681 -1.1977,1.6326 -0.304,0.5647 -0.7351,1.0265 -0.958,1.0265 -0.9399,0 -5.1015,-3.3286 -7.9652,-6.3708 -3.5053,-3.7238 -3.8914,-3.7339 -2.8051,-0.073 0.5369,1.8084 1.0052,2.632 2.5473,4.4793 1.039,1.2449 3.0641,3.9553 4.5004,6.0233 3.6371,5.2388 4.4228,5.6396 4.8134,2.4544 0.1565,-1.2789 0.3107,-1.609 0.7902,-1.6856 1.3193,-0.2107 2.2491,-0.7641 2.4179,-1.4396 0.1013,-0.3888 0.2814,-0.7069 0.4075,-0.7069 0.1261,0 1.0086,1.0387 1.9621,2.3082 0.9534,1.2695 2.392,3.0079 3.198,3.8629 1.326,1.4069 1.4476,1.6513 1.2753,2.5686 -0.1947,1.0382 -2.0183,3.7369 -4.6467,6.8773 -0.8139,0.9724 -1.6829,2.3461 -1.9305,3.0528 -0.2477,0.7067 -0.6642,1.8927 -0.9253,2.6357 -0.3737,1.0618 -1.0266,1.8313 -3.0528,3.5977 -2.4821,2.1632 -10.9854,8.0377 -11.251,7.772 -0.068,-0.071 -0.3231,-1.4198 -0.5606,-2.9968 -0.2859,-1.9069 -0.8195,-3.7916 -1.5917,-5.6255 -0.6394,-1.5169 -1.3913,-3.464 -1.6716,-4.3271 -0.3242,-0.9963 -0.7947,-1.7574 -1.2889,-2.0848 -2.5834,-1.7104 -4.4317,-4.5353 -7.2526,-11.0807 -0.3873,-0.8965 -1.4454,-2.6388 -2.3538,-3.8718 -0.9073,-1.233 -2.49,-3.4716 -3.5166,-4.9747 -1.9857,-2.9066 -3.9162,-4.7611 -3.9162,-3.7601 0,0.2951 0.4154,1.4076 0.9219,2.4723 0.5077,1.0648 2.0533,4.6835 3.4356,8.0414 2.6824,6.5186 3.7676,8.5462 6.2181,11.6196 2.1433,2.6871 2.5969,3.6889 2.7613,6.0991 0.079,1.1479 0.3422,2.48 0.5865,2.9601 0.2442,0.4801 1.7549,2.1745 3.3578,3.7653 1.872,1.8576 3.1305,3.3812 3.5189,4.2589 0.9827,2.2213 1.8224,2.8673 3.7248,2.8673 1.9474,0 5.7611,-0.7527 7.7265,-1.5247 0.7835,-0.3081 1.6885,-0.5601 2.0105,-0.5601 0.9838,0 0.7564,2.2817 -0.6349,6.3712 -2.293,6.7377 -3.7136,8.8955 -10.4079,15.8114 -4.2145,4.3538 -7.2943,8.2666 -8.1858,10.4019 -0.6743,1.6124 -0.5358,3.356 0.6236,7.8333 0.7711,2.9805 1.0165,4.4617 0.896,5.3967 -0.2589,1.993 -1.9226,6.6731 -2.6487,7.4484 -0.3579,0.3826 -1.9305,1.5344 -3.494,2.5596 -3.4941,2.2908 -5.804,4.5364 -6.225,6.0523 -0.1711,0.6142 -0.3106,1.8291 -0.3118,2.6998 0,2.0236 -0.2555,2.464 -2.2749,3.9558 l -1.6593,1.2259 0.1959,1.5729 0.197,1.573 -1.7302,1.3679 c -0.9511,0.7524 -2.9908,2.7237 -4.533,4.3808 -3.5087,3.7715 -5.043,4.7966 -8.6631,5.7897 -1.5557,0.4268 -3.9714,1.1699 -5.3661,1.6512 -1.3958,0.4813 -2.8389,0.8751 -3.207,0.8751 -0.3669,0 -1.1684,-0.4703 -1.7808,-1.0451 -1.03,-0.9672 -1.0739,-1.0751 -0.591,-1.4475 0.7227,-0.5588 0.6631,-0.8761 -0.4694,-2.4953 -0.5448,-0.7786 -1.4239,-2.4299 -1.953,-3.6697 -0.529,-1.2399 -1.3564,-2.8482 -1.8371,-3.574 -0.7936,-1.1958 -0.8769,-1.5575 -0.887,-3.8513 -0.011,-3.1001 -0.5651,-4.7938 -2.4506,-7.5227 -1.9564,-2.8328 -2.249,-3.964 -1.5815,-6.1149 0.2893,-0.9354 1.0682,-2.6882 1.7279,-3.895 1.1752,-2.1462 1.1988,-2.2444 1.0457,-4.478 -0.1925,-2.7993 -1.2405,-5.9139 -2.7759,-8.2498 -0.6348,-0.9661 -2.5586,-3.2034 -4.2752,-4.9717 -2.9831,-3.0744 -3.1058,-3.2504 -2.7872,-4.0207 0.1835,-0.4431 0.6957,-1.6708 1.1392,-2.7282 1.1921,-2.8432 1.2517,-3.8495 0.3208,-5.4379 -0.4278,-0.731 -0.779,-1.7014 -0.779,-2.1566 0,-0.7198 -0.09,-0.8012 -0.6697,-0.625 -0.3693,0.1114 -1.2067,0.2749 -1.8641,0.3631 -1.1415,0.1537 -1.2349,0.1025 -2.1647,-1.193 -0.8555,-1.1915 -1.1403,-1.3763 -2.3808,-1.5447 -2.0892,-0.2837 -2.3256,-0.3808 -3.6854,-1.5175 -2.7185,-2.2714 -4.0107,-2.5307 -6.7135,-1.3481 -1.1166,0.4885 -3.2666,1.2574 -4.7773,1.7084 l -2.7489,0.8203 -1.5207,-0.8278 c -1.5197,-0.8269 -1.523,-0.8274 -3.2082,-0.3556 -0.9286,0.2597 -2.7905,0.681 -4.139,0.9361 -2.2671,0.4289 -2.526,0.426 -3.4254,-0.038 -3.6652,-1.8892 -6.7833,-4.653 -9.9081,-8.7829 -0.7925,-1.0478 -2.2255,-2.8019 -3.1857,-3.8983 l -1.7436,-1.9932 -0.143,-2.3862 c -0.1317,-2.1885 -0.2791,-2.6424 -1.7797,-5.4782 -0.9005,-1.7007 -1.6367,-3.3652 -1.6367,-3.699 0,-0.3337 0.3231,-1.1934 0.7171,-1.9102 0.7418,-1.3491 2.2569,-9.1593 2.2659,-11.6796 0,-1.5437 0.7317,-4.6882 1.3677,-5.9164 0.2623,-0.5085 1.1673,-1.7417 2.0093,-2.7402 0.8432,-0.9984 2.069,-2.7427 2.7241,-3.876 0.9884,-1.7094 1.7347,-2.4939 4.3789,-4.6026 3.3781,-2.6945 3.9747,-3.5025 4.2651,-5.7809 0.125,-0.986 0.5674,-1.988 1.4341,-3.2557 1.0885,-1.5891 1.6063,-2.0226 3.9207,-3.2785 1.4668,-0.7961 2.9616,-1.7242 3.3218,-2.0624 l 0.6552,-0.6152 1.7335,1.0568 c 0.9546,0.5811 2.2086,1.1409 2.7872,1.2439 0.9827,0.175 1.1335,0.091 2.2884,-1.2787 0.6799,-0.8063 1.6131,-1.6088 2.0746,-1.7833 2.2817,-0.8634 10.3606,-1.8908 16.2884,-2.0712 3.5515,-0.1081 3.8835,-0.071 4.488,0.4973 0.3602,0.3377 1.4825,0.8938 2.4945,1.2358 1.0131,0.3418 1.8359,0.7098 1.8292,0.8176 0,0.1081 -0.609,0.6359 -1.3395,1.1734 -1.0368,0.7623 -1.3295,1.1652 -1.3295,1.8306 0,1.139 1.5726,2.5022 4.3417,3.764 1.173,0.5344 2.5857,1.3681 3.1395,1.8525 1.9429,1.6979 3.2937,2.4464 4.4171,2.4464 1.523,0 2.1106,-0.5331 2.3099,-2.0952 0.2397,-1.8804 0.5437,-2.3189 1.7661,-2.5483 0.7756,-0.1455 1.4994,-0.027 2.6026,0.4279 2.2975,0.9469 9.5726,3.3222 10.1749,3.3222 0.2904,0 1.3812,-0.4774 2.4246,-1.0608 l 1.8968,-1.0607 2.1894,0.3679 c 3.5999,0.6048 4.5556,-0.077 5.554,-3.9564 0.922,-3.5838 1.0244,-5.0876 0.385,-5.6653 -0.4942,-0.4464 -0.7497,-0.4547 -2.6318,-0.086 l -2.0847,0.4085 -0.8938,-1.026 c -0.4908,-0.5643 -1.1122,-1.0261 -1.3801,-1.0261 -0.269,0 -1.3091,0.5486 -2.3132,1.219 -2.0971,1.4006 -2.2266,1.389 -5.6114,-0.5037 l -1.9125,-1.0692 0.2015,-1.4611 0.2014,-1.4611 h -1.3688 -1.3676 v -2.377 c 0,-2.2919 -0.023,-2.3838 -0.7509,-2.5653 -0.9624,-0.2414 -2.2389,0.2912 -3.2644,1.362 -0.8994,0.9394 -0.8375,1.8644 0.1632,2.3997 0.5719,0.3061 0.8173,1.4784 0.3096,1.4784 -0.1452,0 -0.3523,0.3451 -0.4582,0.7667 l -0.1924,0.7667 -0.9557,-0.6002 c -0.5268,-0.3301 -1.2248,-1.0619 -1.5535,-1.6262 -0.3275,-0.5643 -0.9714,-1.5628 -1.4318,-2.2189 -0.5775,-0.8224 -0.8915,-1.7131 -1.0108,-2.8668 -0.1509,-1.4597 -0.3175,-1.8052 -1.3114,-2.7023 -0.6259,-0.5658 -1.782,-1.3548 -2.5677,-1.7533 -1.8202,-0.9223 -5.294,-4.2549 -5.5529,-5.3274 -0.3647,-1.5066 -2.2716,-0.8264 -2.2716,0.8101 0,1.5096 0.4514,2.4224 1.5005,3.0344 0.5257,0.3071 1.2529,1.164 1.6525,1.9468 0.3917,0.7691 1.0728,1.6402 1.5152,1.9359 1.0941,0.7335 3.6662,3.4367 3.6685,3.8563 0,0.4754 -0.7126,0.6997 -1.2157,0.3812 -0.8949,-0.5663 -1.1651,-0.2954 -1.1651,1.1697 0,1.1329 -0.1925,1.711 -0.8949,2.6805 -0.9095,1.2557 -1.3024,1.4786 -1.6401,0.9315 -0.1013,-0.1675 -0.9917,-0.7098 -1.9721,-1.2051 -1.4623,-0.7381 -1.7673,-1.0192 -1.6908,-1.5571 0.079,-0.5764 0.2994,-0.667 1.7943,-0.7453 1.6728,-0.088 1.7054,-0.1058 1.89,-1.091 0.2893,-1.5422 0,-2.0179 -2.3301,-3.7502 -2.0318,-1.5154 -3.5931,-2.9797 -6.297,-5.9056 -1.4048,-1.521 -2.6644,-2.2212 -3.5109,-1.9525 -0.3434,0.1092 -1.2113,0.7393 -1.9283,1.4006 -1.2855,1.1843 -1.3227,1.1969 -2.5012,0.8437 -1.6874,-0.5053 -2.3628,-0.2225 -2.3628,0.9891 0,0.5378 -0.1463,1.4 -0.3264,1.916 -0.2792,0.8009 -0.573,1.0088 -2.0105,1.4219 -2.0926,0.6016 -3.1237,1.1187 -3.9376,1.9761 -0.5605,0.5898 -0.6134,0.896 -0.457,2.6432 l 0.1779,1.9762 -1.6379,0.6644 c -1.2472,0.5063 -1.8922,1.0126 -2.7106,2.1278 -1.1639,1.585 -2.3121,2.3393 -3.5627,2.3393 -0.5245,0 -1.1842,0.3898 -1.9429,1.1487 -1.0862,1.0861 -1.1752,1.1201 -1.6243,0.6229 -0.8949,-0.988 -2.1602,-1.3156 -3.5976,-0.9312 -1.2484,0.3341 -1.3542,0.3092 -2.5992,-0.6184 -0.7137,-0.5317 -1.5219,-1.1006 -1.7966,-1.2645 -0.4491,-0.2681 -0.466,-0.6047 -0.1778,-3.3776 0.2161,-2.0774 0.5955,-3.7737 1.1662,-5.212 0.4649,-1.1728 0.9827,-3.0035 1.1504,-4.0682 0.1677,-1.0647 0.4548,-2.3215 0.6371,-2.7928 0.3737,-0.9681 0,-0.9757 5.2164,0.1058 1.6299,0.338 3.6314,0.8128 4.4475,1.0551 0.8161,0.2422 1.5781,0.4404 1.6941,0.4404 0.4919,0 1.1695,-2.5264 1.1695,-4.3596 0,-1.9237 -0.034,-2.0114 -1.6682,-4.1825 -1.1831,-1.5712 -2.0543,-2.4047 -2.9909,-2.8596 -1.8089,-0.8788 -1.6997,-1.6773 0.3163,-2.3153 1.3621,-0.4309 1.5399,-0.4257 2.5181,0.073 1.37,0.6981 1.7054,0.3599 1.2856,-1.2941 -0.1779,-0.7012 -0.2815,-1.3163 -0.2308,-1.3672 0.056,-0.051 0.4548,0.045 0.8971,0.2138 1.3216,0.5024 2.0972,0.3551 2.9808,-0.5661 0.645,-0.6739 0.8319,-1.1482 0.8184,-2.0849 -0.011,-1.1527 0.023,-1.2126 0.878,-1.2126 1.469,0 2.0588,-0.538 3.1293,-2.857 0.7632,-1.6512 1.1673,-2.2061 1.6064,-2.2061 0.323,0 0.5864,-0.1963 0.5864,-0.4362 0,-0.24 0.2713,-0.5815 0.6034,-0.7589 0.4694,-0.2512 0.708,-0.2164 1.0829,0.1576 0.7294,0.7298 1.1121,0.1024 1.1864,-1.9441 0.056,-1.6539 0.023,-1.761 -0.4885,-1.4863 -0.3051,0.1629 -0.752,0.22 -0.9951,0.127 -0.6945,-0.2668 -1.7527,-3.0769 -1.9136,-5.0837 l -0.1475,-1.8301 1.7166,-2.1237 c 1.3182,-1.6327 1.8439,-2.083 2.2716,-1.9474 0.8578,0.2725 0.6574,-0.093 -0.332,-0.6051 -0.8623,-0.4464 -0.9175,-0.4314 -2.0105,0.545 -2.1241,1.8996 -3.4884,2.1761 -4.7098,0.9547 -0.7069,-0.7073 -0.9658,-1.9135 -0.5076,-2.3711 0.1227,-0.1227 0.1767,-1.0247 0.1204,-2.0046 -0.1013,-1.7365 -0.079,-1.8094 1.0604,-2.8887 1.5512,-1.4753 3.9128,-3.0241 4.9248,-3.2301 0.663,-0.1349 0.8195,-0.3282 0.8195,-1.0168 0,-0.6916 0.2206,-0.9632 1.1864,-1.4558 1.4352,-0.7323 1.9632,-1.4901 2.6757,-3.8426 0.2983,-0.9872 0.8251,-2.1534 1.1696,-2.5914 0.3444,-0.4381 0.627,-1.0231 0.627,-1.3001 0,-0.2769 0.3422,-0.8256 0.7609,-1.219 0.4368,-0.4104 0.7047,-0.9333 0.6281,-1.2263 -0.1632,-0.6222 0.6417,-1.3887 2.2885,-2.1829 1.0683,-0.5144 1.2236,-0.7102 1.1471,-1.4363 -0.09,-0.8185 -0.056,-0.8383 1.1909,-0.7447 1.1415,0.086 1.272,0.03 1.1989,-0.5084 -0.068,-0.4782 0.287,-0.7741 1.6828,-1.4148 2.3099,-1.0603 4.3102,-1.0986 5.3818,-0.1024 0.4188,0.3889 2.5699,1.4675 4.7819,2.3968 6.2136,2.6111 6.2913,2.647 7.0455,3.2403 0.3906,0.3071 0.9106,0.9469 1.156,1.4217 0.6721,1.2994 -0.023,2.8079 -1.4802,3.2101 -1.8405,0.5083 -5.9795,-0.3077 -7.7063,-1.5193 -1.7954,-1.2599 -1.0987,-0.089 1.2619,2.1213 2.3875,2.236 2.4877,2.3822 2.6295,3.8611 0.1655,1.7287 0.6675,2.1003 0.6675,0.4948 0,-0.5733 0.056,-1.0424 0.1351,-1.0424 0.079,0 0.6304,0.335 1.2337,0.7445 1.5636,1.0613 2.0251,0.9905 1.8191,-0.2794 -0.1925,-1.1855 0.2477,-1.7147 1.2157,-1.4615 1.2394,0.3239 1.5096,-0.016 1.2248,-1.5397 -0.3344,-1.7902 0.034,-2.527 1.2641,-2.527 0.7519,0 0.878,-0.092 0.7058,-0.5213 -0.3895,-0.9715 -1.039,-3.1997 -1.0424,-3.5739 0,-0.842 1.2225,-0.3186 2.1005,0.8934 0.9005,1.2438 1.8517,1.979 2.5868,1.9999 0.2578,0.011 0.3726,-0.5399 0.3726,-1.7765 0,-0.9829 0.09,-1.787 0.2015,-1.787 0.1125,0 0.6157,0.1493 1.12,0.3318 1.3215,0.478 3.2307,-0.3203 3.0922,-1.2935 -0.1689,-1.1913 -3.2656,-2.9021 -6.5829,-3.6362 -0.484,-0.107 -1.0615,-0.5673 -1.3913,-1.1089 -0.7441,-1.2243 -1.2551,-4.2737 -1.012,-6.0458 0.1722,-1.2585 0.4323,-1.656 2.266,-3.4715 2.1725,-2.1508 2.2265,-2.1857 2.8355,-1.7996 0.2893,0.1837 0.09,0.8246 -0.8566,2.6791 -1.0581,2.086 -1.2394,2.7152 -1.2551,4.3608 0,1.0577 0.1463,2.2301 0.3467,2.6052 0.5245,0.9794 2.0048,1.9071 4.694,2.9424 2.4889,0.9579 4.989,2.2684 6.602,3.4606 1.424,1.052 1.6548,0.7267 0.6394,-0.9021 -0.4908,-0.7871 -0.9692,-1.8155 -1.0637,-2.2854 -0.152,-0.7622 -0.079,-0.8647 0.6585,-0.9516 1.2641,-0.1486 1.174,-0.6715 -0.2274,-1.3092 -1.0413,-0.4741 -1.3227,-0.7844 -1.5985,-1.7665 -0.7103,-2.5218 -0.7485,-2.8293 -0.3557,-2.8293 0.5235,0 7.2594,4.7101 8.6631,6.0574 1.4454,1.3873 2.1816,1.7968 2.4495,1.3626 0.1137,-0.1837 -1.0897,-1.5768 -2.768,-3.2043 -1.6334,-1.5836 -3.2532,-3.4361 -3.5999,-4.1168 -0.7553,-1.4791 -1.245,-3.485 -0.9624,-3.9416 0.3782,-0.6124 3.1552,0.4889 4.8234,1.9133 1.4071,1.2011 2.6408,1.716 2.6408,1.1021 0,-0.1273 -0.4322,-0.6101 -0.959,-1.073 -0.9219,-0.8084 -0.9366,-0.8577 -0.3906,-1.2575 0.3129,-0.229 0.7452,-0.4162 0.959,-0.4162 0.215,0 0.3906,-0.1341 0.3906,-0.2979 0,-0.1637 -0.3692,-0.2986 -0.8194,-0.2995 -1.5377,0 -3.0123,-0.6092 -3.8239,-1.5706 -0.8645,-1.0259 -1.7459,-2.8605 -1.4938,-3.112 0.385,-0.3856 1.7381,0.345 3.4243,1.8496 1.0131,0.9038 1.962,1.6434 2.1106,1.6434 0.5989,0 0.5775,-0.5879 -0.034,-0.9146 -0.5819,-0.3112 -0.5988,-0.3783 -0.1575,-0.6254 0.7159,-0.4005 0.6247,-0.7087 -0.6225,-2.1151 -0.6147,-0.6925 -1.263,-1.5272 -1.442,-1.8548 -0.179,-0.3277 -0.6946,-0.7765 -1.1448,-0.9973 -0.4503,-0.221 -1.0852,-0.8524 -1.4093,-1.4031 -0.3254,-0.5508 -1.2428,-1.4025 -2.0398,-1.8928 -0.7969,-0.4903 -1.5961,-1.1669 -1.7763,-1.5036 -0.2825,-0.5281 -0.2217,-0.6528 0.4481,-0.9073 0.4266,-0.1622 0.9343,-0.2971 1.129,-0.2996 0.1936,0 0.5336,-0.1193 0.7553,-0.2595 0.6304,-0.3994 -1.3699,-1.7561 -3.3477,-2.2714 -1.7425,-0.4538 -4.1965,-1.5835 -5.6171,-2.5861 -0.7868,-0.5544 -1.1403,-1.7286 -0.5211,-1.7286 0.1632,0 0.2971,-0.2526 0.2971,-0.5615 0,-1.0872 -11.4705,-5.7581 -19.3592,-7.8824 -10.3617,-2.7908 -19.1115,-4.3617 -29.3359,-5.2673 -5.4189,-0.48 -19.716,-0.3931 -25.3049,0.1537 -15.6051,1.527 -31.8563,5.5123 -44.6833,10.9577 -1.3035,0.5531 -1.8292,0.9459 -1.9496,1.4554 -0.1126,0.4794 -0.8128,1.0584 -2.2356,1.8508 -4.5736,2.5452 -10.5317,5.6779 -12.5951,6.6223 -2.1691,0.9925 -6.0065,3.5812 -6.0065,4.0521 0,0.1353 0.3366,0.1616 0.7486,0.059 0.8577,-0.2153 1.6344,0.2926 1.6344,1.0689 0,0.4606 -1.6299,1.6542 -5.4358,3.9815 -0.4503,0.2754 -0.8195,0.7178 -0.8195,0.9831 0,0.7175 3.1755,0.3123 5.4099,-0.6907 2.2446,-1.0074 2.803,-0.6574 1.4341,0.9008 -0.7744,0.882 -0.8588,1.1044 -0.4694,1.2279 0.2623,0.083 0.6856,0.217 0.9422,0.298 0.8589,0.2709 0.403,1.7337 -0.69,2.2147 -1.12,0.493 -1.1775,0.7045 -0.4019,1.4795 0.3107,0.3109 0.6563,0.9812 0.7677,1.4892 0.2578,1.1727 1.0829,1.2188 3.1406,0.1759 l 1.4758,-0.7479 -0.5966,-0.5968 c -0.6135,-0.6133 -0.5854,-1.4759 0.09,-2.8216 0.4548,-0.9037 2.5891,-3.5401 3.1001,-3.8292 0.3737,-0.2116 0.331,-0.3146 -0.2476,-0.6031 -1.1887,-0.5928 -1.1144,-2.1534 0.1767,-3.6874 l 0.7306,-0.8687 -1.3261,-0.9351 c -0.7294,-0.5143 -1.3271,-1.0876 -1.3271,-1.2742 0,-0.8421 2.2727,-2.5792 4.0208,-3.0735 0.9827,-0.2779 2.0217,-0.5737 2.3088,-0.6574 0.4773,-0.1392 0.5212,0.1715 0.5257,3.6653 0,2.0996 0.1215,4.0019 0.2634,4.2273 0.2071,0.3269 0.5504,0.2064 1.6941,-0.5957 0.7891,-0.553 1.5692,-1.0978 1.7346,-1.2108 0.1779,-0.1214 -0.034,-0.5113 -0.5065,-0.9537 -0.6146,-0.5689 -0.8082,-1.0287 -0.8082,-1.9175 0,-1.3199 0.4559,-1.8401 1.6873,-1.927 0.8308,-0.059 0.8432,-0.036 0.7441,1.3679 -0.067,0.9402 0.056,1.6706 0.367,2.1396 0.4469,0.6835 0.4131,0.7761 -0.8488,2.3255 -0.7227,0.8875 -1.7234,1.783 -2.2232,1.99 -0.8453,0.3502 -1.3665,0.3295 -3.3004,-0.1314 -0.4976,-0.1188 -1.0897,0.043 -1.7865,0.4864 -0.9016,0.5741 -0.9624,0.6803 -0.4468,0.7855 0.3275,0.066 1.2393,0.3954 2.0262,0.7301 1.0896,0.4641 1.3823,0.722 1.2281,1.0865 -0.3377,0.8047 -0.7396,3.1326 -0.6023,3.4909 0.1734,0.449 -1.102,1.0078 -2.2986,1.0078 -1.0221,0 -2.929,0.8757 -3.1136,1.4306 -0.2093,0.6274 1.4049,0.7406 2.848,0.1997 2.6633,-0.9991 4.0906,-1.8766 6.4647,-3.9743 1.3102,-1.1583 2.9908,-2.4378 3.7338,-2.8437 1.1999,-0.6545 1.4926,-0.702 2.5946,-0.4221 1.1246,0.2853 1.4319,0.2273 3.2116,-0.6056 2.5563,-1.1961 2.347,-1.6755 -0.6147,-1.4072 -2.1567,0.1956 -2.1635,0.1939 -3.2351,-0.8168 -1.7065,-1.6092 -1.3328,-2.1378 0.8634,-1.2204 1.8404,0.7692 3.306,0.3416 4.9101,-1.4324 0.8398,-0.9283 1.9564,-1.7575 2.9808,-2.2122 l 1.6378,-0.7273 -0.744,-0.5722 c -0.4098,-0.3148 -0.8454,-0.5753 -0.9681,-0.579 -0.4908,-0.015 -0.1464,-0.8107 0.8273,-1.9127 l 1.0255,-1.1615 2.1636,0.6413 c 2.7758,0.8225 2.9087,0.8126 2.9087,-0.2177 0,-0.4713 0.1767,-1.0044 0.394,-1.1845 0.2408,-0.1999 2.8231,-0.4041 6.6267,-0.5239 6.7743,-0.2134 9.1731,0.047 10.1276,1.1018 0.519,0.5739 0.5133,0.6152 -0.1902,1.2956 -0.654,0.6323 -4.4891,2.187 -9.3644,3.7958 -0.9827,0.3244 -3.4963,0.9791 -5.5844,1.4549 -2.0893,0.4757 -4.4351,1.1881 -5.213,1.583 -1.5027,0.7638 -4.3822,3.622 -5.912,5.8689 l -0.9253,1.3589 -1.7695,-0.128 c -1.5861,-0.1147 -1.8686,-0.045 -2.723,0.6744 -1.2495,1.0514 -1.2022,1.7701 0.2375,3.5789 1.442,1.8129 1.5625,3.0919 0.4458,4.7371 -0.9456,1.3938 -0.9354,1.8811 0.068,2.9214 l 0.8049,0.8408 -0.5471,0.9624 c -0.3005,0.5294 -1.3834,1.8337 -2.4067,2.8985 -1.0232,1.0646 -2.3335,2.6897 -2.9121,3.6112 -0.5774,0.9215 -1.8562,2.5298 -2.8411,3.574 l -1.7898,1.8985 -1.0874,-0.5793 c -1.2056,-0.6415 -2.311,-1.9341 -3.5819,-4.1859 -0.4615,-0.8191 -1.1088,-1.7907 -1.4375,-2.1593 l -0.5988,-0.6701 h 0.6315 c 0.3467,0 1.1155,0.2863 1.7087,0.6362 0.7666,0.4528 1.1707,0.5442 1.397,0.317 0.2274,-0.2272 -0.09,-0.5826 -1.1189,-1.2319 -0.7914,-0.5019 -1.6705,-0.9127 -1.9542,-0.9127 -0.2825,0 -1.1437,0.4802 -1.9125,1.0671 -1.0007,0.7641 -1.4892,0.9758 -1.7189,0.7455 -0.2307,-0.2305 -0.1542,-0.5545 0.2713,-1.1416 0.7407,-1.0246 7.4767,-4.3885 7.9765,-3.983 0.5076,0.4128 2.5676,0.9165 2.5676,0.6279 0,-0.1395 -0.4018,-0.5399 -0.8938,-0.8899 -0.4908,-0.3498 -0.8937,-0.7996 -0.8937,-0.9993 0,-0.1998 0.681,-1.0283 1.5129,-1.8413 1.55,-1.5146 2.3593,-2.7315 2.3593,-3.548 0,-0.6884 -1.0952,-1.6528 -1.8776,-1.6528 -1.1268,0 -3.4152,1.6427 -3.897,2.7973 -0.4987,1.1911 -2.1275,2.2263 -2.6622,1.6914 -0.2387,-0.2379 -0.2364,-0.5704 0,-1.2167 0.3095,-0.8188 0.2848,-0.8874 -0.3084,-0.8651 -0.3546,0.014 -1.3148,0.3823 -2.1332,0.8199 -1.1043,0.5898 -1.4712,0.9499 -1.4194,1.3906 0.4919,4.1463 0.5583,3.7192 -0.8882,5.6578 -0.7328,0.9828 -1.4904,2.0886 -1.6829,2.4571 -0.4018,0.7702 -1.5196,0.9136 -1.5196,0.195 0,-0.2614 0.251,-0.8311 0.5572,-1.2658 0.9805,-1.3902 2.123,-3.8748 2.123,-4.6161 0,-0.7569 -0.6641,-1.5138 -1.1763,-1.3403 -0.1666,0.056 -0.6068,0.7057 -0.9782,1.4429 -0.4672,0.9278 -0.8904,1.3707 -1.3756,1.4394 -0.6641,0.095 -0.69,0.036 -0.4953,-1.1162 0.1689,-0.9944 0.1126,-1.2511 -0.3062,-1.4117 -0.7429,-0.2854 -2.3413,0.675 -4.6602,2.801 -1.5523,1.423 -2.2423,1.8615 -2.929,1.8615 -2.2288,0 -7.6523,3.1498 -8.9006,5.1686 -1.0761,1.7421 -0.7362,3.3844 0.8758,4.2176 0.9894,0.5117 1.129,1.3176 0.4378,2.527 -0.556,0.972 -0.5527,2.0087 0.011,3.6069 0.6799,1.9262 1.7819,2.9455 3.1856,2.9455 h 1.1482 l -0.1947,1.0424 c -0.1734,0.9194 -0.1227,1.0423 0.4221,1.0423 0.3399,0 1.0986,-0.4209 1.684,-0.9353 1.7166,-1.5075 4.918,-5.6359 5.688,-7.3366 0.8093,-1.786 1.3046,-2.0676 3.8824,-2.2068 l 1.7448,-0.095 -0.079,1.3403 c -0.1126,1.9572 0.1125,2.5618 1.0952,2.9687 1.2326,0.5108 1.6435,1.7993 1.0008,3.146 -0.6045,1.2688 -0.403,1.5112 0.7575,0.9108 1.1966,-0.6187 2.1365,-1.9918 2.1365,-3.1212 0,-0.7643 0.1711,-0.9896 1.0221,-1.3453 0.5876,-0.2452 1.2293,-0.8261 1.5073,-1.3632 0.2657,-0.5149 0.6394,-0.8842 0.8285,-0.821 0.1902,0.063 0.5336,1.1659 0.7632,2.4501 0.3433,1.9143 0.3512,2.6152 0.045,3.8909 -0.3715,1.5468 -0.2701,2.1896 0.7272,4.6196 0.1126,0.2698 -0.1351,0.9443 -0.5853,1.6077 -0.7768,1.1437 -0.6653,1.633 0.3725,1.6461 0.1993,0 0.5156,0.2923 0.7036,0.6441 0.4874,0.9092 -0.1205,2.7511 -1.1471,3.4819 -1.2078,0.8588 -3.7754,1.5408 -6.5716,1.7456 -2.4663,0.1805 -2.4888,0.1758 -3.162,-0.6681 -0.6562,-0.823 -0.7159,-0.8382 -1.9136,-0.4794 -1.1887,0.3561 -3.3117,1.9227 -3.3117,2.4438 0,0.1383 0.3928,0.1146 0.8724,-0.053 0.4795,-0.1673 1.2506,-0.255 1.7121,-0.1949 l 0.8409,0.1092 -0.8263,0.4103 c -0.8296,0.412 -1.3339,1.4911 -0.9714,2.0782 0.1126,0.1731 0.5009,0.3147 0.8746,0.3147 0.3749,0 0.9208,0.2647 1.2135,0.5881 0.5043,0.5565 0.5054,0.6296 0.023,1.3643 -0.788,1.2028 -0.4424,1.5346 1.7459,1.674 4.0749,0.2594 3.0292,1.1429 -3.1496,2.6621 -1.9102,0.4695 -3.8205,0.9856 -4.2449,1.147 -1.2146,0.462 -1.0255,-0.7112 0.2499,-1.5471 1.0154,-0.6655 1.6277,-2.0165 0.9141,-2.0165 -0.2004,0 -1.0863,0.1367 -1.9688,0.304 -1.3362,0.2535 -1.6593,0.2286 -1.935,-0.1488 -0.4222,-0.5781 -1.1493,-0.5722 -2.8986,0.024 -1.5793,0.5382 -2.3639,1.5201 -1.5703,1.9646 0.609,0.3409 0.6225,1.5375 0.023,2.0353 -0.2522,0.2089 -1.1538,0.6066 -2.0037,0.8837 -1.4375,0.4684 -1.5894,0.6125 -2.1658,2.0458 -0.9377,2.334 -1.2483,2.5365 -3.9319,2.5688 -2.7433,0.033 -3.9095,0.5454 -5.0036,2.1991 -0.4142,0.6255 -0.923,1.9708 -1.1302,2.9893 l -0.3782,1.8519 -2.517,1.3432 c -2.7916,1.4902 -4.6569,2.8228 -7.1862,5.1348 -3.2802,2.9984 -4.4239,5.4754 -5.2895,11.4527 -0.5313,3.6662 -1.6525,7.6111 -2.3662,8.325 -0.2183,0.2175 -0.654,0.1669 -1.4397,-0.1672 -0.6191,-0.2635 -1.4273,-0.5629 -1.7965,-0.6653 -0.3681,-0.1025 -0.6698,-0.3687 -0.6698,-0.5917 0,-0.577 0.8397,-1.3414 1.4735,-1.3414 1.0018,0 1.335,-0.7699 0.8656,-2.0019 -0.367,-0.9634 -0.3546,-1.5528 0.09,-4.6876 0.2814,-1.9722 0.5189,-4.093 0.529,-4.7131 0.011,-1.0409 -0.023,-1.1026 -0.5842,-0.8053 -0.7396,0.396 -1.1853,0.1558 -1.1853,-0.6393 0,-0.3307 -0.3917,-0.9929 -0.8702,-1.4716 -1.2145,-1.2143 -2.2333,-1.1377 -4.2707,0.3207 -1.9024,1.3621 -2.1894,1.4292 -2.4596,0.5751 -0.2702,-0.851 -1.872,-1.764 -3.0978,-1.7653 -1.1831,0 -2.6915,1.3952 -4.5759,4.2375 -2.6588,4.0113 -4.5983,12.4857 -3.798,16.5941 0.2871,1.4745 1.227,2.9938 1.8518,2.9938 0.1362,0 0.8521,-0.9416 1.5894,-2.0925 0.7373,-1.151 1.6649,-2.2402 2.0611,-2.4205 0.9737,-0.4439 2.0757,-0.1189 2.6701,0.7873 0.4311,0.6579 0.4401,0.8479 0.067,1.5671 -1.2517,2.4427 -3.1687,7.9874 -3.1687,9.1655 0,1.6794 0.3894,1.8852 1.1718,0.6192 0.7317,-1.1848 1.1155,-1.3716 2.813,-1.3716 2.2525,0 2.4967,1.045 1.0807,4.6102 -0.9107,2.2929 -1.6739,6.1004 -1.3779,6.8729 0.2353,0.613 0.6068,0.5371 1.6446,-0.3359 1.0953,-0.9218 1.9925,-0.8566 2.7793,0.2022 0.5775,0.7764 0.5775,0.7766 -0.3422,3.4138 -1.2236,3.5106 -1.2146,3.6109 0.3467,3.5792 1.2078,-0.025 1.2968,0.036 1.9587,1.3145 0.6112,1.182 0.6765,1.6393 0.5504,3.8719 -0.079,1.3932 -0.3658,3.0542 -0.6416,3.6939 -0.4953,1.1528 -0.4908,1.1803 0.4593,3.2763 0.5268,1.1625 1.2933,2.5649 1.7031,3.1166 l 0.7441,1.0031 0.3996,-0.95 c 0.6337,-1.5076 1.5129,-1.1462 2.8614,1.1776 1.5467,2.6625 1.9958,2.5913 2.759,-0.4378 0.5212,-2.0707 0.7283,-2.4612 1.6198,-3.0595 0.5617,-0.3772 1.1651,-0.6403 1.3407,-0.5846 0.1745,0.056 0.5853,0.5946 0.9129,1.1974 0.3276,0.6028 0.7598,1.0963 0.9613,1.0967 0.2004,5e-4 0.7914,-0.4683 1.3137,-1.0416 0.5212,-0.5733 1.0727,-1.0423 1.2247,-1.0423 0.1531,0 1.0345,0.6752 1.9609,1.5005 1.5456,1.3777 1.7943,1.4955 3.0416,1.4386 1.0536,-0.048 1.622,0.1189 2.5338,0.7427 0.6462,0.4426 2.105,1.089 3.2397,1.4362 2.5057,0.7664 3.6066,1.7358 5.1848,4.5615 1.2754,2.2863 1.182,2.2201 7.0467,4.9724 3.44,1.6139 3.7664,2.0059 5.7757,6.9228 0.6642,1.6282 1.3801,3.1159 1.5884,3.3063 0.2093,0.1902 1.5196,0.66 2.9109,1.0437 3.0089,0.8293 3.6922,1.4349 4.9034,4.3497 2.1422,5.1541 1.9846,4.9458 4.9642,6.5283 1.4926,0.7927 2.9886,1.8125 3.3241,2.2663 0.4356,0.5899 1.2878,1.0507 2.9886,1.6172 1.9733,0.6572 2.6453,1.059 3.9444,2.3577 1.5939,1.5937 1.747,1.6663 6.5322,3.0931 2.2457,0.6698 4.4058,2.0789 5.6058,3.6572 1.1876,1.562 2.8817,4.7101 2.8817,5.354 0,0.3233 -0.4041,1.559 -0.8983,2.7462 -0.8465,2.0342 -0.9883,2.2001 -2.4573,2.8831 -1.9609,0.9117 -2.5395,1.9153 -4.1154,7.139 -0.6439,2.1344 -1.9002,5.5291 -2.7917,7.5437 -0.8915,2.0148 -1.8967,4.4006 -2.2344,5.3022 -0.3377,0.9014 -0.9332,1.9389 -1.3227,2.3055 -0.6709,0.6297 -0.7789,0.6436 -1.9451,0.249 -1.4949,-0.505 -4.362,-0.2018 -5.9672,0.6311 -1.7718,0.9189 -2.2299,2.0828 -2.2367,5.6748 v 3.1107 l -1.8697,1.3608 c -1.1831,0.8609 -2.6296,2.3599 -3.9376,4.0805 -1.1369,1.4959 -2.2794,2.8012 -2.5395,2.9007 -0.2589,0.099 -0.8442,-0.095 -1.3001,-0.432 -0.7925,-0.5855 -2.5677,-1.1454 -3.6809,-1.1606 -0.9107,-0.012 -0.5629,0.8637 0.6787,1.7084 1.0931,0.7435 1.1865,0.9082 1.0503,1.8516 -0.079,0.5694 -0.4041,1.3736 -0.7159,1.7869 -0.5201,0.6913 -0.7531,0.7515 -2.8975,0.7515 h -2.3301 l -0.011,0.8936 c -0.011,0.8594 -0.067,0.8913 -1.281,0.837 -1.4228,-0.063 -1.4195,-0.068 -0.8566,1.0393 0.2251,0.4422 0.502,1.1057 0.6157,1.4743 0.188,0.6069 0.1126,0.6702 -0.8375,0.6702 -1.5343,0 -1.5827,0.4779 -0.1778,1.7614 l 1.2495,1.1423 -0.2083,1.7902 c -0.1598,1.385 -0.1013,2.0035 0.2803,2.7333 0.672,1.3001 2.598,3.1097 4.6726,4.3902 2.033,1.2546 2.2514,1.9933 0.7722,2.6192 -0.8656,0.3669 -1.0299,0.353 -1.5635,-0.1314 -0.3276,-0.2976 -1.6007,-1.0404 -2.8288,-1.6509 -1.8315,-0.9094 -2.884,-1.7619 -5.8321,-4.7228 -3.5785,-3.5946 -6.3791,-7.0257 -6.3791,-7.8154 0,-0.2277 0.2679,-0.414 0.5955,-0.414 0.8217,0 0.753,-0.7695 -0.1678,-1.8629 -1.6254,-1.9324 -2.8378,-4.9316 -6.3498,-15.7092 -2.6836,-8.2356 -2.7523,-8.5712 -2.8153,-13.7169 -0.045,-3.5576 -0.1464,-4.4772 -0.573,-5.1271 -0.3073,-0.4699 -0.52,-1.3717 -0.5234,-2.2172 0,-1.7643 -0.6968,-5.1036 -1.2923,-6.2563 -0.2983,-0.5761 -1.2427,-1.2906 -2.849,-2.1554 -2.7804,-1.4963 -3.2814,-2.0755 -5.3391,-6.1766 -0.8352,-1.6638 -2.1702,-4.0243 -2.9672,-5.2456 -0.7981,-1.2214 -2.0206,-3.5432 -2.7185,-5.1595 -0.6979,-1.6164 -1.8506,-4.212 -2.5609,-5.7681 -0.7103,-1.5563 -1.3834,-3.3417 -1.496,-3.9677 -0.1137,-0.626 -0.5246,-1.5173 -0.914,-1.9806 -0.6991,-0.83 -0.7024,-0.8684 -0.2556,-2.6111 0.2938,-1.1476 0.4244,-2.805 0.3738,-4.7206 l -0.079,-2.9519 1.5207,-2.2338 c 2.6206,-3.8478 2.848,-4.469 3.1609,-8.6315 0.3895,-5.1872 0.4041,-8.3965 0.034,-9.0446 -0.2848,-0.5052 -0.3839,-0.4611 -1.2011,0.5305 -0.9917,1.2032 -1.5523,1.1926 -2.2119,-0.042 -0.2286,-0.4262 -0.8432,-0.954 -1.3666,-1.1729 -0.7531,-0.3149 -1.3305,-1.0681 -2.7635,-3.6024 -1.8911,-3.346 -1.9969,-3.8498 -1.3418,-6.3906 0.1689,-0.6578 -0.067,-1.2169 -1.3136,-3.0778 -1.3981,-2.0887 -1.5219,-2.416 -1.5219,-4.0167 0,-1.854 -0.3839,-3.2705 -0.8859,-3.2705 -0.1678,0 -0.3085,0.2345 -0.3119,0.5212 0,0.3616 -0.4694,0.039 -1.5207,-1.054 -1.4915,-1.5512 -1.5118,-1.5964 -1.3125,-2.9783 0.1125,-0.7717 0.2679,-1.68 0.3489,-2.0185 0.1126,-0.4703 -0.4176,-1.1652 -2.2434,-2.9471 l -2.3887,-2.3317 -0.09,-2.116 -0.09,-2.1162 -1.1358,-0.045 c -0.6247,-0.025 -1.415,-0.2926 -1.7583,-0.5957 -0.7362,-0.6506 -2.2344,-3.805 -3.3263,-7.004 -0.9512,-2.789 -0.9839,-4.5045 -0.1936,-10.1865 0.3219,-2.3146 0.8701,-6.2624 1.219,-8.7729 0.8263,-5.9625 0.4469,-6.536 -1.0671,-1.6155 -0.4165,1.3515 -0.8859,2.4572 -1.0446,2.4572 -0.1587,0 -0.2882,-0.083 -0.2882,-0.1851 0,-0.5642 1.917,-8.2073 2.6825,-10.694 0.7677,-2.4934 0.9365,-3.5884 0.4784,-3.0942 -0.3118,0.3359 -3.5706,10.4254 -4.4644,13.8244 -2.7286,10.3689 -4.8595,22.801 -5.8973,34.3995 -0.5088,5.6925 -0.51,21.9003 0,27.1027 1.6738,17.1096 5.7825,34.9653 11.2059,48.6956 7.1998,18.2274 18.3214,36.3436 30.6699,49.9576 13.4179,14.7932 30.958,28.2964 47.5278,36.5877 5.0306,2.5177 8.4031,3.8053 8.5787,3.2764 0.2139,-0.6424 1.935,-0.2959 5.652,1.1383 5.6418,2.1765 9.6548,3.5307 12.9023,4.3541 3.3635,0.8526 3.5774,0.8739 3.3714,0.3377 -0.079,-0.2194 0.068,-0.5781 0.3264,-0.7968 0.6473,-0.5368 10.9336,0.083 11.9017,0.7176 1.2652,0.8292 5.7454,2.0202 9.2226,2.4519 1.9564,0.2429 4.3495,0.7086 5.3176,1.0349 2.8198,0.9498 8.8117,1.267 10.7602,0.5696 z m -69.5402,-25.8187 c -0.6664,-0.602 -1.4049,-1.4665 -1.639,-1.9211 -0.475,-0.9185 -0.5741,-2.3454 -0.1632,-2.3454 0.1463,0 1.0604,0.5855 2.0329,1.3011 1.9542,1.4388 2.8018,2.8511 2.1692,3.6135 -0.5673,0.6835 -1.0795,0.545 -2.3999,-0.6481 z m 158.6207,-49.5221 c -0.5966,-1.1536 -0.5729,-1.7549 0.1284,-3.3415 0.3208,-0.7248 0.7294,-2.3167 0.9073,-3.5374 0.8194,-5.6173 0.9748,-5.9293 3.2745,-6.5417 0.7362,-0.1962 1.8416,-0.6134 2.4562,-0.9274 0.9973,-0.5086 1.1189,-0.6936 1.1189,-1.7051 0,-0.9596 0.2567,-1.4186 1.6683,-2.9778 2.0588,-2.2754 2.6937,-2.6604 3.3342,-2.0211 0.3219,0.3222 0.4514,0.97 0.421,2.1101 -0.045,1.7833 -0.4109,2.6797 -1.7921,4.4134 -0.4919,0.6174 -1.2495,2.2256 -1.6817,3.574 -0.9276,2.8883 -3.5189,8.1467 -4.7582,9.6563 -0.9107,1.1099 -2.8254,2.1591 -3.959,2.1704 -0.4367,0 -0.8183,-0.2937 -1.1178,-0.8722 z m 16.589,-8.1308 c 0.8318,-2.4185 2.7004,-4.1273 3.5672,-3.2612 0.5865,0.5863 -0.068,1.8369 -1.5804,3.0348 -1.9069,1.5075 -2.4495,1.5693 -1.9868,0.2264 z m 39.3678,-53.5668 c -0.4525,-0.5006 -0.5572,-1.032 -0.5178,-2.6305 0.056,-2.1725 0.5595,-4.4859 0.9816,-4.4859 0.1441,0 0.6754,0.8255 1.1797,1.8345 1.1549,2.311 1.1966,3.7438 0.1452,4.9927 -0.914,1.0865 -1.048,1.1081 -1.7887,0.2892 z m -253.7135,-35.5872 c -1.5298,-1.605 -1.6817,-1.6912 -2.3999,-1.3639 -0.421,0.1921 -1.4972,0.3492 -2.3909,0.3492 -1.2596,0 -1.6232,0.1025 -1.6232,0.4562 0,1.1776 -2.2243,0.5171 -3.1823,-0.9451 -0.484,-0.7377 -0.4806,-0.7944 0.068,-1.1932 0.3974,-0.2899 0.9647,-0.36 1.845,-0.228 l 1.2731,0.1908 v -1.8472 -1.8473 l 0.9332,0.7852 c 0.5133,0.4319 1.4274,1.0376 2.0318,1.3458 0.6034,0.3082 1.5884,1.1592 2.1883,1.891 0.6,0.7319 1.6987,1.713 2.4416,2.1804 1.2866,0.8093 1.6221,1.5502 0.8217,1.8166 -0.2026,0.067 -1.1042,-0.6482 -2.0025,-1.5905 z m -11.7756,-6.6734 c -0.5729,-0.3139 -1.353,-0.5763 -1.7324,-0.5832 -1.1043,-0.02 -1.8416,-0.5643 -1.8416,-1.3592 0,-0.5529 0.2533,-0.8358 1.0424,-1.1656 0.5741,-0.2396 1.0424,-0.6296 1.0424,-0.8667 0,-0.5673 -1.845,-2.1716 -3.1012,-2.6964 -0.546,-0.2285 -1.379,-0.8983 -1.8495,-1.4886 -0.6551,-0.8209 -1.0761,-1.0731 -1.7887,-1.0731 -0.5122,0 -1.093,-0.1957 -1.2922,-0.4349 -0.2972,-0.3579 -0.1847,-0.5424 0.6337,-1.0413 1.5354,-0.9357 2.4765,-0.7922 3.8239,0.5827 0.6427,0.6552 1.2967,1.1914 1.4532,1.1914 0.4886,0 3.6528,3.0521 3.9353,3.7957 0.1892,0.4969 0.1317,0.9704 -0.1958,1.6033 -0.5572,1.0784 -0.3411,1.4287 1.3587,2.1948 1.2337,0.5565 1.4498,0.9648 0.8352,1.5793 -0.493,0.4929 -1.102,0.4305 -2.3234,-0.2382 z m 2.9752,-7.2225 c -0.3242,-0.5323 -0.5854,-1.3029 -0.5786,-1.7124 0,-0.7155 0.056,-0.6991 1.0412,0.4219 1.0795,1.2223 1.3452,2.2585 0.5786,2.2585 -0.2477,0 -0.7171,-0.4356 -1.0412,-0.968 z m -4.1661,-2.0018 c 0,-0.6166 1.4735,-3.5825 1.7796,-3.5825 0.4728,0 0.6957,0.7817 0.474,1.6644 -0.3107,1.2378 -2.2536,2.8914 -2.2536,1.9181 z m 189.3975,-4.653 c -0.3365,-0.4053 -0.287,-0.557 0.3355,-1.0358 0.9286,-0.7137 1.1774,-0.7142 1.1774,0 0,1.4372 -0.7531,1.9541 -1.5129,1.0388 z m -15.7964,-4.2554 c -0.6372,-0.6365 -1.1561,-1.4484 -1.1561,-1.8061 v -0.6498 l 1.1527,0.648 c 0.6337,0.3564 1.7391,1.1634 2.4573,1.7933 l 1.3035,1.1454 -1.3001,0.012 c -1.1223,0.011 -1.46,-0.1461 -2.4573,-1.1436 z m -32.1907,-6.1526 c -0.4581,-1.0054 0,-2.3707 0.8038,-2.3707 0.8341,0 1.2742,1.3939 0.7497,2.3745 -0.5145,0.961 -1.1144,0.9595 -1.5535,0 z m 6.9375,-0.2525 c -0.1891,-0.2272 -0.4998,-1.1592 -0.6911,-2.071 -0.3028,-1.4458 -0.2837,-1.728 0.1497,-2.2064 0.3534,-0.3907 0.4469,-0.8512 0.3253,-1.5998 -0.1362,-0.8398 -0.023,-1.2226 0.5639,-1.9046 0.7306,-0.8495 0.7351,-0.8506 1.0751,-0.2166 0.1868,0.3504 0.3737,2.1024 0.4131,3.8935 0.067,2.8451 0,3.336 -0.4953,3.8873 -0.6664,0.7407 -0.878,0.7752 -1.3407,0.2176 z m -178.1308,-0.389 c 0,-0.5401 0.654,-3.8169 0.8139,-4.0757 0.09,-0.1439 0.2882,-0.035 0.4435,0.242 0.3501,0.6265 -0.2364,3.2657 -0.8375,3.7642 -0.2307,0.1921 -0.4199,0.2234 -0.4199,0.07 z m 152.3869,-25.6537 c -0.2713,-0.2995 -0.4931,-0.6966 -0.4931,-0.8824 0,-0.1857 0.8128,-0.8894 1.8056,-1.5637 1.711,-1.1622 2.3459,-1.8915 1.9722,-2.2652 -0.09,-0.092 -0.6102,0.054 -1.1527,0.3252 -0.9512,0.4746 -1.0064,0.4692 -1.5084,-0.1509 -0.7249,-0.895 -0.6653,-1.1077 0.5043,-1.798 1.057,-0.6231 1.1414,-1.2478 0.2172,-1.6078 -0.3928,-0.1533 -0.2949,-0.2804 0.4706,-0.6042 0.9444,-0.4004 1.2663,-1.1124 0.6697,-1.4814 -0.1643,-0.1013 -0.2983,-0.4395 -0.2983,-0.7516 0,-0.3123 -0.2544,-0.7039 -0.565,-0.8705 -0.698,-0.3731 -0.9242,0.084 -0.9242,1.8699 0,1.0441 -0.1542,1.3644 -0.9692,2.0154 -2.0938,1.6705 -4.2134,2.2693 -4.5871,1.2957 -0.1013,-0.2673 0.1159,-0.7746 0.5201,-1.204 0.5245,-0.5583 0.6258,-0.8679 0.4097,-1.2506 -0.1576,-0.2797 -0.2465,-1.1452 -0.197,-1.9233 0.1013,-1.5698 0.2927,-1.6573 2.5057,-1.1433 0.9535,0.2215 1.1325,0.179 1.2867,-0.3049 0.1013,-0.3092 0.3546,-0.5622 0.5696,-0.5622 0.2161,0 0.4727,-0.3015 0.5718,-0.6701 0.2274,-0.8527 -0.4424,-1.3824 -1.4938,-1.1815 -0.7091,0.1357 -0.7688,0.079 -0.6056,-0.572 0.1317,-0.5257 0.023,-0.822 -0.4041,-1.0879 -0.3647,-0.2281 -0.5842,-0.6932 -0.5842,-1.2388 0,-1.0132 0.4435,-1.4055 1.0345,-0.9149 0.5381,0.4471 1.1482,-0.5484 0.7362,-1.201 -0.4874,-0.7688 -0.2983,-1.4782 0.4863,-1.8359 0.4232,-0.1926 1.0288,-0.8599 1.3463,-1.4829 0.6011,-1.1783 1.4588,-1.5281 1.4588,-0.5948 0,0.2959 -0.3411,0.9994 -0.7587,1.5637 l -0.7598,1.0258 1.281,0.093 c 0.7047,0.052 1.3958,0.2073 1.5377,0.3464 0.1429,0.1414 -0.068,0.9637 -0.4796,1.8625 l -0.7373,1.6093 2.0498,3.4052 c 1.128,1.873 2.4821,3.8009 3.0089,4.2845 0.5888,0.5397 0.9208,1.1022 0.8612,1.4565 -0.09,0.5293 0.023,0.5606 1.4172,0.3763 l 1.5151,-0.2009 v 0.8597 c 0,0.4729 -0.3343,1.3151 -0.7418,1.8717 -0.4086,0.5567 -0.9455,1.4449 -1.1932,1.9741 -0.6439,1.3732 -1.4723,1.7781 -4.1244,2.0137 -1.7392,0.1545 -2.6059,0.3908 -3.3916,0.9241 -1.2675,0.8596 -1.621,0.8864 -2.2671,0.1719 z m -66.3309,-9.5829 c -0.8353,-0.5468 -1.9227,-0.9533 -2.8288,-1.0582 -2.3347,-0.2699 -2.8131,-0.4139 -2.8131,-0.8459 0,-0.2228 0.4154,-0.5771 0.9231,-0.7872 0.5077,-0.2103 1.5984,-1.1982 2.4235,-2.1954 1.3632,-1.6473 2.2716,-2.4813 2.409,-2.2128 0.034,0.056 0.3534,0.9395 0.7226,1.9632 0.3681,1.0238 0.9715,2.6697 1.3396,3.6574 0.5853,1.5673 0.6135,1.8323 0.224,2.0803 -0.672,0.4275 -0.9231,0.3646 -2.3999,-0.6014 z m 30.1295,-28.3457 c -1.9035,-0.9419 -2.7162,-2.2173 -3.0359,-4.7668 -0.3422,-2.7188 0.1204,-6.7191 0.9692,-8.3814 0.3399,-0.6671 1.0682,-1.8901 1.6176,-2.7175 0.5493,-0.8275 1.3271,-2.4714 1.729,-3.6534 0.4018,-1.1818 1.344,-3.2727 2.0926,-4.6465 0.9219,-1.6921 1.3609,-2.8538 1.3609,-3.6012 0,-1.0179 -0.1013,-1.1484 -1.3114,-1.6838 -0.7429,-0.3285 -2.3256,-0.6526 -3.6483,-0.7469 -2.8817,-0.2054 -3.6775,-0.3592 -3.6775,-0.7111 0,-0.2466 2.9864,-1.802 4.2212,-2.1991 0.2747,-0.088 0.5426,-0.4604 0.5955,-0.8273 0.079,-0.5303 0.403,-0.7386 1.5872,-1.0154 0.8195,-0.1916 2.6284,-0.8254 4.0209,-1.4086 1.6626,-0.6965 3.5638,-1.2128 5.5405,-1.5043 1.6547,-0.2441 3.3984,-0.6451 3.8745,-0.8911 0.7869,-0.4072 0.958,-0.3976 1.9047,0.1058 1.3474,0.7172 2.1398,0.7134 3.5717,-0.017 1.5061,-0.7687 1.8551,-0.7509 2.9245,0.1489 1.2382,1.0425 1.8337,0.9315 0.7981,-0.1489 -0.8094,-0.8449 -0.8206,-0.8936 -0.2184,-0.8936 0.3501,0 1.0018,0.166 1.4465,0.3688 0.6438,0.2932 0.8352,0.2932 0.9331,0 0.2409,-0.725 2.0848,-0.4144 3.1643,0.5332 0.5651,0.4961 1.1392,0.8742 1.2765,0.8403 0.251,-0.062 5.393,1.4767 5.8647,1.7557 0.1407,0.083 -0.4548,0.4016 -1.3227,0.7074 -2.0914,0.7366 -2.625,1.2828 -1.0176,1.0419 3.1114,-0.4661 5.1376,-0.5463 5.3447,-0.2114 0.1272,0.2063 -0.5144,1.0455 -1.5984,2.0899 -1.3936,1.3423 -1.7032,1.7868 -1.3407,1.9258 0.6855,0.263 0.2713,1.9559 -0.6732,2.7488 -0.6506,0.5466 -0.7046,0.7202 -0.3996,1.2891 0.4222,0.7901 0.2071,1.5043 -0.4547,1.5043 -0.2646,0 -0.4199,0.1675 -0.3467,0.3723 0.079,0.2047 -0.068,0.7744 -0.3152,1.2658 -0.2477,0.4915 -0.5471,1.0946 -0.6653,1.3402 -0.1542,0.3173 -0.5741,0.4177 -1.4476,0.3467 -1.3868,-0.1128 -1.5973,0.1242 -0.4863,0.5469 0.4098,0.1556 0.7452,0.4125 0.7452,0.5707 0,0.5678 -0.6484,0.6674 -2.0904,0.3213 -1.9552,-0.469 -2.5451,-0.1842 -0.9624,0.4655 0.6957,0.2859 1.2652,0.6275 1.2652,0.7589 0,0.4052 -2.0487,0.6495 -3.8227,0.456 l -1.6863,-0.1839 0.7025,0.5927 c 0.5527,0.4653 1.1414,0.5927 2.7376,0.5927 2.1961,0 2.6509,0.2466 1.8281,0.9913 -0.7869,0.7116 -2.463,1.3413 -6.1315,2.3032 -9.6886,2.5395 -11.8871,3.4094 -15.6502,6.193 -1.398,1.0339 -2.3222,2.0784 -3.7225,4.2094 -2.0645,3.1403 -2.2851,3.3732 -3.7913,4.0029 -0.9669,0.4039 -1.147,0.3898 -2.2997,-0.1806 z m -36.0663,-4.2031 c -1.0975,-0.5549 -1.0705,-1.2 0.067,-1.5821 0.537,-0.1806 1.1797,-0.4181 1.4308,-0.5278 0.2499,-0.1092 0.7091,-0.014 1.0209,0.2139 0.5043,0.3691 0.5235,0.5135 0.1779,1.3468 -0.43,1.0387 -1.3542,1.2271 -2.6937,0.5492 z m 68.0025,-1.5409 c -1.8855,-0.857 -2.401,-1.6172 -2.5305,-3.7288 l -0.1013,-1.6331 3.4209,0.031 c 3.2386,0.03 3.4479,0.07 3.9432,0.7397 0.2871,0.3894 0.609,1.1494 0.7148,1.6889 0.1734,0.8853 0.056,1.1102 -1.1932,2.3081 -1.586,1.5197 -2.069,1.587 -4.2539,0.5936 z m -60.2613,-18.615 c 0,-0.6018 2.159,-4.1803 3.3128,-5.4912 0.994,-1.1291 1.3846,-1.3692 2.2311,-1.3692 0.609,0 1.0919,0.171 1.1876,0.4198 0.2442,0.6351 -0.618,2.0741 -1.8202,3.0384 -0.5899,0.4732 -1.7819,1.497 -2.6487,2.2751 -1.5174,1.3624 -2.2626,1.7336 -2.2626,1.1271 z m 84.1704,-5.0605 c -1.111,-1.1511 -1.9654,-2.2615 -1.8967,-2.4676 0.068,-0.2061 0.6484,-0.4104 1.2911,-0.4541 1.5399,-0.1047 4.1976,1.3738 4.4779,2.4912 0.2094,0.8333 -0.636,2.2836 -1.4206,2.4384 -0.2375,0.046 -1.3406,-0.8568 -2.4517,-2.0079 z m 5.5586,-0.1126 c -0.4548,-0.3688 -1.2281,-0.917 -1.72,-1.2183 -1.4285,-0.8759 -2.203,-1.6914 -2.0319,-2.1388 0.2038,-0.53 1.2236,-0.5153 2.1804,0.032 0.4098,0.2342 1.0131,0.4251 1.3407,0.4244 0.4964,0 0.4593,-0.075 -0.224,-0.4457 -0.4503,-0.2444 -0.8184,-0.628 -0.8184,-0.8525 0,-0.9339 3.8296,-1.4455 4.9091,-0.6559 0.5324,0.3896 0.5257,0.4248 -0.1666,0.8715 -0.3974,0.2559 -1.2248,0.5572 -1.8382,0.6694 -1.182,0.216 -1.5399,0.7335 -0.5066,0.7335 0.8769,0 2.3673,0.8356 2.3673,1.3276 0,0.4232 -1.2056,1.3982 -2.1512,1.7387 -0.3095,0.1114 -0.8408,-0.081 -1.3406,-0.4855 z m -104.0249,-0.1658 c 0,-0.2963 2.1489,-1.2237 2.8344,-1.2237 0.636,0 0.5426,0.8182 -0.1351,1.1809 -0.7047,0.3774 -2.6993,0.4091 -2.6993,0.043 z m 142.0307,-3.8691 c -0.636,-0.6359 -1.1561,-1.2917 -1.1561,-1.4573 0,-1.019 2.3043,-0.4152 3.5425,0.9284 0.5932,0.6428 0.6495,0.8516 0.3366,1.2297 -0.6225,0.749 -1.4994,0.5233 -2.723,-0.7008 z m -118.2567,-0.6421 c -0.6754,-0.3941 -1.2281,-2.1801 -0.9985,-3.2256 0.2511,-1.143 1.2112,-2.124 2.0803,-2.124 0.9027,0 0.9253,0.084 0.8093,3.1203 -0.09,2.3824 -0.1362,2.5379 -0.744,2.5295 -0.3569,0 -0.8724,-0.14 -1.1471,-0.3002 z m 3.4333,-0.5098 c 0.079,-0.2867 0.2341,-0.8563 0.3422,-1.2658 0.3422,-1.302 1.4431,-4.0066 1.792,-4.404 0.4402,-0.503 1.3351,-0.1461 1.3351,0.5328 0,0.5853 -1.6739,4.6914 -2.1545,5.2859 -0.4762,0.5876 -1.4882,0.4729 -1.3148,-0.1489 z m 51.8661,-2.3507 c -0.3276,-0.063 -1.5669,-0.4051 -2.7545,-0.759 -1.8371,-0.5477 -2.159,-0.742 -2.159,-1.304 0,-0.3631 0.2116,-0.7413 0.4694,-0.8405 0.4424,-0.1699 5.4403,1.3222 6.3847,1.9064 0.7959,0.4916 -0.6675,1.2437 -1.9406,0.9971 z m 41.3997,-3.6467 c -3.1519,-0.9159 -4.0209,-1.5727 -4.0209,-3.0364 0,-0.8463 0.6732,-0.7075 3.1417,0.6473 2.7489,1.509 3.5684,2.1569 3.2915,2.6049 -0.26,0.4207 -0.2071,0.4254 -2.4123,-0.2158 z m 14.1214,-0.1519 c -1.3755,-0.4811 -8.3141,-4.1314 -11.9084,-6.2654 -1.5354,-0.9119 -2.8918,-1.6579 -3.0134,-1.6579 -0.1204,0 -0.9624,-0.2776 -1.8697,-0.617 -1.5512,-0.5806 -2.1151,-1.2614 -1.2765,-1.5435 0.2961,-0.1002 0.2949,-0.219 0,-0.5845 -0.3219,-0.3897 -0.2645,-0.481 0.376,-0.6034 0.4153,-0.079 1.3226,-0.035 2.0172,0.1001 0.6934,0.1343 1.9541,0.25 2.8006,0.2573 1.791,0.015 2.4821,0.2246 2.4821,0.7529 0,0.6475 0.8094,1.0948 2.8997,1.6013 1.3474,0.3264 2.0138,0.6325 2.0138,0.924 0,0.2677 0.8049,0.7334 2.0859,1.207 3.0944,1.1446 5.7139,2.6342 7.4969,4.2635 0.8724,0.7977 1.5861,1.5648 1.5861,1.7047 0,0.5605 -4.3811,0.916 -5.6835,0.4611 z m -24.8434,-12.7225 c -2.1297,-0.4566 -6.3521,-1.1768 -9.3824,-1.6005 -8.223,-1.1495 -9.5119,-1.3714 -9.6953,-1.6685 -0.5865,-0.9474 13.0104,0.9316 19.8207,2.739 1.8832,0.4998 3.467,0.9518 3.5188,1.0044 0.3872,0.3866 -0.9298,0.2401 -4.2618,-0.4744 z m -27.3412,-0.3172 c -0.4593,-0.1673 -0.7835,-0.4583 -0.7216,-0.6466 0.3186,-0.9746 6.4411,-1.8022 7.4834,-1.0116 0.7599,0.5764 0.4503,0.9668 -1.2157,1.5347 -1.5512,0.5284 -4.2696,0.5889 -5.5461,0.1235 z m 160.325,185.8967 c 0.1553,-0.2911 0.3692,-1.2617 0.4739,-2.157 0.1902,-1.6182 0.1868,-1.6295 -0.7373,-1.9517 l -0.9298,-0.324 v -2.4748 -2.4748 l 1.2956,0.1036 1.2968,0.1035 0.2071,-1.4411 c 0.1137,-0.7927 0.3253,-4.8589 0.4705,-9.036 0.3299,-9.4593 -0.045,-18.7605 -1.0558,-26.507 -0.7216,-5.5159 -1.7561,-11.5539 -2.024,-11.8222 -0.3602,-0.3596 0.1205,10.7143 0.5505,12.6939 0.5043,2.3237 0.5065,4.0739 0,3.9969 -0.4492,-0.069 -1.0559,-2.1059 -1.2529,-4.2086 -0.1126,-1.1649 -0.2994,-1.8309 -0.5032,-1.764 -0.5876,0.1926 -1.7155,4.9933 -1.7639,7.5073 -0.045,2.2968 0,2.4821 1.3688,5.1409 1.8056,3.5174 2.2998,5.4565 2.2998,9.0147 0,2.7838 -0.6225,5.9481 -1.1696,5.9481 -0.1407,0 -0.4649,-0.9329 -0.7227,-2.0732 -0.4964,-2.198 -1.6221,-4.7051 -2.4022,-5.3532 -0.4243,-0.3515 -0.4705,-0.054 -0.4682,2.9969 0,1.8629 0.1913,4.6445 0.4221,6.1813 0.2308,1.5367 0.3433,3.279 0.251,3.8718 l -0.1688,1.0776 0.618,-0.7445 c 0.7283,-0.8769 0.7451,-0.8495 1.4025,2.3276 0.5122,2.4739 0.5955,6.0799 0.1587,6.8962 -0.3579,0.6678 0.1385,3.7191 0.7632,4.6903 0.4683,0.7297 1.1595,0.6368 1.6165,-0.2176 z m -66.4063,-63.9557 c 0.5966,-0.7494 0.6382,-1.0468 0.4795,-3.4995 -0.09,-1.4743 -0.2555,-3.1496 -0.3568,-3.7229 -0.1576,-0.8965 -0.09,-1.0841 0.5065,-1.3402 0.9737,-0.4202 1.3913,-1.7581 0.8352,-2.6751 -0.959,-1.5798 -3.942,-4.879 -6.0639,-6.7067 -2.3301,-2.0071 -2.6464,-2.6554 -1.8258,-3.7404 0.7542,-0.9975 0.5549,-2.1771 -0.5561,-3.2884 -0.5572,-0.5569 -1.2765,-1.0126 -1.5985,-1.0126 -0.8622,0 -2.0858,1.0799 -2.7916,2.4633 -1.2101,2.3722 -0.5707,4.136 3.4805,9.5989 0.9028,1.2171 1.809,2.8787 2.1771,3.9921 0.6191,1.875 0.6202,1.9229 0.068,2.8294 -1.147,1.8972 -1.1166,2.0114 1.3024,4.8946 2.8434,3.3887 3.2397,3.5902 4.3395,2.2075 z m -26.6254,-9.9139 c 0.7767,-0.3263 1.2945,-0.3268 3.0123,0 2.5102,0.4736 4.703,0.2257 5.1341,-0.5806 0.4289,-0.8015 0.3681,-3.1351 -0.1125,-4.2551 -0.2252,-0.5272 -0.8319,-1.3557 -1.3486,-1.8412 -0.7913,-0.7441 -1.2652,-0.9126 -3.0179,-1.0733 -1.3632,-0.1249 -2.2817,-0.3736 -2.6655,-0.7216 -0.5798,-0.5238 -0.5719,-0.546 0.5628,-1.6469 2.2344,-2.1691 2.6824,-5.6528 0.7249,-5.6528 -1.2213,0 -3.27,1.1157 -4.264,2.3214 -0.4885,0.5921 -1.1842,1.2354 -1.5478,1.4296 -0.5876,0.3144 -0.7981,0.2185 -1.9361,-0.8799 -0.7024,-0.6782 -1.2765,-1.367 -1.2754,-1.5308 0,-0.1639 0.2634,-0.633 0.5842,-1.0425 0.6079,-0.777 0.7913,-1.787 0.3242,-1.787 -0.2353,0 -3.9128,2.9256 -5.043,4.0112 -0.3332,0.32 -0.2465,0.5975 0.5212,1.6564 1.5467,2.1353 1.1572,2.6199 -1.0615,1.32 -1.5669,-0.9181 -2.0239,-0.7486 -3.3398,1.2385 -1.3013,1.9644 -1.4431,3.0488 -0.5933,4.5253 0.6563,1.1407 0.6642,1.2275 0.1756,1.7678 -0.645,0.7121 -0.6506,1.2179 -0.023,1.9126 0.6642,0.7344 1.881,0.6854 4.3991,-0.1773 3.8318,-1.3132 4.0119,-1.3048 5.8523,0.2726 1.451,1.2436 1.7369,1.3715 2.8075,1.2574 0.6551,-0.07 1.613,-0.3044 2.1275,-0.5212 z m -175.4753,-25.5925 c 0.3478,-0.3838 0.5538,-0.99 0.5133,-1.5114 -0.045,-0.5991 0.1216,-0.9878 0.5335,-1.2456 0.7238,-0.4519 0.761,-0.9212 0.1239,-1.5586 -0.3445,-0.3443 -0.3884,-0.5816 -0.161,-0.8558 0.502,-0.6056 0.056,-1.6324 -0.9951,-2.2811 -1.3395,-0.8278 -1.854,-0.761 -3.7327,0.4841 -2.3605,1.5649 -2.9425,2.1675 -3.1474,3.2637 -0.341,1.815 0.1599,1.7557 2.0701,-0.2455 2.1129,-2.2128 3.2746,-3.0464 3.9084,-2.8031 0.645,0.2473 0.5797,2.5633 -0.1464,5.1819 -0.3276,1.1822 -0.5955,2.2899 -0.5955,2.4616 0,0.4189 0.8792,-0.061 1.6289,-0.8902 z m 128.5115,-5.98 c 2.0971,-1.1561 4.8505,-1.875 6.0752,-1.5864 1.3102,0.3084 1.8145,0.1905 3.5683,-0.8338 2.3335,-1.3632 3.0281,-2.1725 3.7935,-4.4221 0.6079,-1.7827 0.6529,-2.1908 0.3388,-3.0575 -0.7834,-2.1679 -0.3714,-3.013 1.2507,-2.5651 1.29,0.3561 2.5575,0.1457 2.5575,-0.4245 0,-0.2103 -0.4109,-0.9422 -0.9141,-1.6264 -0.5031,-0.6842 -0.8431,-1.3598 -0.7564,-1.5014 0.09,-0.1417 1.0221,-0.6821 2.0757,-1.2011 1.6345,-0.8047 2.5553,-1.6492 2.1928,-2.0116 -0.056,-0.053 -1.0277,0.2154 -2.1658,0.597 -1.1391,0.3816 -2.5654,0.784 -3.1698,0.8943 -1.0717,0.1952 -1.1077,0.1717 -1.4049,-0.9029 -1.0896,-3.9469 -1.0907,-3.9268 0.2499,-6.4713 0.9647,-1.8327 1.1572,-2.4289 0.8882,-2.7536 -0.1891,-0.2278 -0.5449,-0.4143 -0.7914,-0.4143 -0.4041,0 -5.4392,5.0602 -5.6925,5.7208 -0.056,0.1531 0.1937,0.5973 0.5595,0.987 0.5628,0.5982 0.645,0.9544 0.5336,2.2869 -0.1914,2.2699 -0.7261,3.1262 -3.0596,4.9016 -1.1403,0.8675 -2.3785,2.0829 -2.7511,2.701 -0.3726,0.618 -0.8398,1.1237 -1.0368,1.1237 -0.1969,0 -0.5763,-0.7371 -0.8442,-1.6381 -0.3906,-1.3126 -1.0694,-2.8203 -1.9992,-4.4355 -0.034,-0.064 -0.2713,0.053 -0.5212,0.2598 -0.3095,0.2573 -0.4536,0.9176 -0.4536,2.0812 0,1.2859 -0.1362,1.8279 -0.5561,2.2078 -0.5403,0.4887 -0.5313,0.5306 0.2972,1.4179 0.4705,0.503 0.8544,1.0446 0.8544,1.2037 0,0.1591 0.5358,1.0379 1.1909,1.9529 1.4893,2.0797 1.5197,2.9195 0.1497,4.2472 -0.5741,0.5557 -1.0423,1.1851 -1.0423,1.3986 0,0.6447 -1.0424,0.437 -1.7876,-0.3563 -0.9647,-1.027 -1.3001,-0.9353 -1.0998,0.3007 0.1644,1.0087 1.2248,2.8323 1.6413,2.8212 0.1125,0 0.9354,-0.4086 1.8292,-0.9014 z m 5.7183,-4.6171 c -0.5864,-1.2875 -0.4378,-5.6353 0.2376,-6.9595 0.7474,-1.4646 2.1387,-2.6309 3.4276,-2.8727 1.6052,-0.3011 1.738,-0.065 1.5095,2.6754 -0.161,1.944 -0.1013,2.6879 0.3028,3.696 0.4773,1.1924 0.4762,1.294 -0.011,1.8361 -0.286,0.3156 -1.0053,0.7292 -1.5996,0.919 -0.5944,0.1899 -1.4994,0.597 -2.0104,0.9048 -1.2146,0.7318 -1.4398,0.7076 -1.8529,-0.1991 z m -7.4969,-1.1774 c 0,-0.8231 -0.3242,-1.9369 -0.5527,-1.9305 -0.2285,0.011 -2.1241,2.868 -2.1241,3.2078 0,0.133 0.1519,0.3939 0.3377,0.5797 0.4581,0.4581 2.3447,-1.0395 2.3391,-1.857 z m -124.5514,-0.074 c 0.7373,-0.6142 1.8146,-1.392 2.3932,-1.7282 1.4814,-0.8593 1.541,-1.3246 0.17,-1.3246 -0.9512,0 -1.3328,0.2191 -2.508,1.4384 -1.209,1.2539 -2.0532,2.7313 -1.5602,2.7313 0.09,0 0.7677,-0.5026 1.505,-1.1169 z m -3.547,-3.0199 c 1.1921,-1.1457 1.1978,-1.1601 0.4717,-1.2989 -0.4233,-0.081 -0.7384,0 -0.7418,0.1905 0,0.182 -0.269,0.666 -0.5887,1.0755 -0.5527,0.7068 -0.7452,1.1914 -0.4717,1.1914 0.068,0 0.6675,-0.5214 1.3305,-1.1585 z m 4.4914,-1.8003 c 0.4312,-0.8065 0.394,-4.8777 -0.045,-5.321 -0.4457,-0.4464 -1.6468,-0.4584 -2.8794,-0.028 -0.6158,0.2144 -1.2056,0.7759 -1.6964,1.6132 -0.4143,0.7062 -1.227,1.6459 -1.8067,2.088 -0.6855,0.5234 -0.9523,0.9053 -0.7632,1.0949 0.4548,0.4541 1.5095,-0.2258 3.3781,-2.1773 2.6183,-2.7349 3.3793,-2.3715 2.6037,1.2439 -0.2668,1.2461 -0.2533,1.5897 0.079,1.7971 0.6,0.3803 0.7981,0.3263 1.1392,-0.3104 z m 0.4773,-14.051 c 0.1126,-0.1821 0.023,-0.4481 -0.2048,-0.5911 -0.3254,-0.2055 -0.3017,-0.2609 0.1125,-0.2645 0.5989,0 0.7036,-0.4855 0.1486,-0.6835 -0.2544,-0.091 -0.1452,-0.3797 0.349,-0.9171 0.7418,-0.8075 0.6709,-1.447 -0.09,-0.8146 -0.3219,0.267 -0.4806,0.2697 -0.6405,0.011 -0.376,-0.6083 -0.7249,0.3608 -0.7294,2.0277 0,1.165 0.1013,1.5637 0.4244,1.5637 0.2363,0 0.5211,-0.1491 0.6337,-0.3312 z m 41.8016,-9.3199 c 0.4424,-0.5333 0.1688,-1.6266 -0.6642,-2.6562 l -0.6528,-0.8053 -0.967,0.5952 c -1.1482,0.7061 -1.2585,1.5971 -0.3208,2.5952 0.726,0.7735 2.0723,0.9135 2.6048,0.2711 z m 136.7288,-0.7858 c 0,-0.3834 -2.6644,-3.2633 -3.019,-3.2633 -0.5966,0 -0.1734,0.9013 1.0288,2.1923 1.2349,1.3249 1.9902,1.7317 1.9902,1.071 z m -155.712,-13.1853 c -0.7385,-0.7613 -0.869,-1.0573 -0.591,-1.3358 0.197,-0.1968 0.5662,-0.3683 0.8195,-0.3813 0.2701,-0.013 0.3163,-0.082 0.1125,-0.1658 -0.3928,-0.1608 -3.2239,1.196 -3.5312,1.6927 -0.3602,0.5822 0.1407,0.689 0.7306,0.1557 0.6912,-0.6256 1.4487,-0.4435 2.4089,0.5787 0.3816,0.406 0.7621,0.6697 0.8454,0.586 0.079,-0.083 -0.2735,-0.5923 -0.7947,-1.1302 z" id="path13"/></g></svg>