<svg xmlns="http://www.w3.org/2000/svg" viewBox="0 0 512 512" width="512" height="512">
  <g fill="#211922">
    <!-- Crescent: outer disc minus inner disc offset right -->
    <path d="M 256 32 a 224 224 0 1 0 0 448 a 224 224 0 1 0 0 -448 Z M 296 56 a 200 200 0 1 1 0 400 a 200 200 0 1 1 0 -400 Z" fill-rule="evenodd"/>
    <!-- NTUAS wordmark, geometric block letters -->
    <g transform="translate(108 232) scale(1)">
      <!-- N -->
      <path d="M 0 0 h 16 l 24 36 V 0 h 16 v 56 h -16 l -24 -36 v 36 h -16 z"/>
      <!-- T -->
      <path d="M 64 0 h 56 v 12 h -20 v 44 h -16 v -44 h -20 z"/>
      <!-- U -->
      <path d="M 128 0 h 16 v 36 a 8 8 0 0 0 16 0 V 0 h 16 v 36 a 24 24 0 0 1 -48 0 z"/>
      <!-- A -->
      <path d="M 184 56 l 16 -56 h 16 l 16 56 h -16 l -3 -10 h -10 l -3 10 z M 204 32 h 8 l -4 -16 z"/>
      <!-- S -->
      <path d="M 240 12 a 16 12 0 0 1 32 0 h -14 a 4 4 0 0 0 -8 0 c 0 8 24 6 24 22 a 16 12 0 0 1 -32 0 h 14 a 4 4 0 0 0 8 0 c 0 -8 -24 -6 -24 -22 z"/>
    </g>
  </g>
</svg>
