<svg xmlns="http://www.w3.org/2000/svg" viewBox="0 0 512 512" width="512" height="512">
  <g fill="#211922">
    <path transform="translate(30.7200 295.8644) scale(0.115885 -0.115885)" d="M566 0 277 334V0H74V688H267L556 349V688H759V0Z"/>
    <path transform="translate(127.2520 295.8644) scale(0.115885 -0.115885)" d="M470 512V0H249V512H23V688H695V512Z"/>
    <path transform="translate(210.9208 295.8644) scale(0.115885 -0.115885)" d="M417 -12Q253 -12 163.5 62.0Q74 136 74 277V688H295V280Q295 222 326.0 187.5Q357 153 416 153Q475 153 506.5 188.0Q538 223 538 280V688H759V277Q759 136 670.0 62.0Q581 -12 417 -12Z"/>
    <path transform="translate(307.4528 295.8644) scale(0.115885 -0.115885)" d="M535 0 506 97H265L236 0H10L261 688H518L769 0ZM311 251H460L388 496H384Z"/>
    <path transform="translate(397.6112 295.8644) scale(0.115885 -0.115885)" d="M667 488V476H460V480Q460 510 438.0 530.0Q416 550 371 550Q327 550 303.5 537.0Q280 524 280 505Q280 478 312.0 465.0Q344 452 415 438Q498 421 551.5 402.5Q605 384 645.0 342.0Q685 300 686 228Q686 106 603.5 47.0Q521 -12 383 -12Q222 -12 132.5 42.0Q43 96 43 233H252Q252 181 279.0 163.5Q306 146 363 146Q405 146 432.5 155.0Q460 164 460 192Q460 217 429.5 229.5Q399 242 330 256Q246 274 191.0 293.5Q136 313 95.0 358.0Q54 403 54 480Q54 593 141.5 646.5Q229 700 363 700Q495 700 580.0 646.5Q665 593 667 488Z"/>
  </g>
</svg>
