<svg xmlns="http://www.w3.org/2000/svg" viewBox="0 0 512 512" width="512" height="512">
  <g fill="#211922" stroke="#211922" stroke-width="18" stroke-linecap="round">
    <!-- head -->
    <line x1="260" y1="70"  x2="170" y2="130"/>           <!-- Meissa - Betelgeuse -->
    <line x1="260" y1="70"  x2="350" y2="145"/>           <!-- Meissa - Bellatrix -->
    <!-- shoulders + torso -->
    <line x1="170" y1="130" x2="350" y2="145"/>           <!-- shoulders: Betelgeuse - Bellatrix -->
    <line x1="170" y1="130" x2="210" y2="270"/>           <!-- left torso: Betelgeuse - Alnitak -->
    <line x1="350" y1="145" x2="305" y2="258"/>           <!-- right torso: Bellatrix - Mintaka -->
    <!-- belt -->
    <line x1="210" y1="270" x2="256" y2="264"/>           <!-- belt left: Alnitak - Alnilam -->
    <line x1="256" y1="264" x2="305" y2="258"/>           <!-- belt right: Alnilam - Mintaka -->
    <!-- sword (hanging from Alnilam) -->
    <line x1="256" y1="264" x2="256" y2="320"/>           <!-- Alnilam - sword top -->
    <line x1="256" y1="320" x2="256" y2="370"/>           <!-- sword top - iota Ori -->
    <!-- legs -->
    <line x1="210" y1="270" x2="185" y2="405"/>           <!-- left leg: Alnitak - Saiph -->
    <line x1="305" y1="258" x2="355" y2="415"/>           <!-- right leg: Mintaka - Rigel -->
  </g>
  <g fill="#211922">
    <!-- stars (sized by apparent magnitude) -->
    <circle cx="260" cy="70"  r="18"/>                    <!-- Meissa (head, lambda Ori), mag 3.4 -->
    <circle cx="170" cy="130" r="32"/>                    <!-- Betelgeuse, mag 0.5 -->
    <circle cx="350" cy="145" r="24"/>                    <!-- Bellatrix, mag 1.6 -->
    <circle cx="210" cy="270" r="24"/>                    <!-- Alnitak, mag 2.0 -->
    <circle cx="256" cy="264" r="24"/>                    <!-- Alnilam, mag 1.7 -->
    <circle cx="305" cy="258" r="24"/>                    <!-- Mintaka, mag 2.2 -->
    <circle cx="256" cy="320" r="13"/>                    <!-- sword top (42 Ori / M42), faint -->
    <circle cx="256" cy="370" r="18"/>                    <!-- iota Ori (sword tip), mag 2.8 -->
    <circle cx="185" cy="405" r="24"/>                    <!-- Saiph, mag 2.1 -->
    <circle cx="355" cy="415" r="32"/>                    <!-- Rigel, mag 0.1 -->
  </g>
</svg>
