<svg xmlns="http://www.w3.org/2000/svg" viewBox="0 0 512 512" width="512" height="512">
  <g fill="#211922" stroke="#211922" stroke-width="18" stroke-linecap="round">
    <!-- lid (triangle) -->
    <line x1="220" y1="95"  x2="170" y2="200"/>           <!-- Kaus Borealis - Kaus Media -->
    <line x1="220" y1="95"  x2="310" y2="200"/>           <!-- Kaus Borealis - Phi -->
    <line x1="170" y1="200" x2="310" y2="200"/>           <!-- Kaus Media - Phi (lid base / body top) -->
    <!-- body sides + bottom -->
    <line x1="170" y1="200" x2="200" y2="360"/>           <!-- Kaus Media - Kaus Australis (body left) -->
    <line x1="310" y1="200" x2="350" y2="340"/>           <!-- Phi - Ascella (body right) -->
    <line x1="200" y1="360" x2="350" y2="340"/>           <!-- Kaus Australis - Ascella (body bottom) -->
    <!-- spout -->
    <line x1="200" y1="360" x2="90"  y2="290"/>           <!-- Kaus Australis - Alnasl -->
    <!-- handle (Phi -> Nunki -> Tau -> Ascella) -->
    <line x1="310" y1="200" x2="430" y2="250"/>           <!-- Phi - Nunki -->
    <line x1="430" y1="250" x2="430" y2="320"/>           <!-- Nunki - Tau -->
    <line x1="430" y1="320" x2="350" y2="340"/>           <!-- Tau - Ascella -->
  </g>
  <g fill="#211922">
    <circle cx="220" cy="95"  r="18"/>                    <!-- Kaus Borealis (lambda), mag 2.8 -->
    <circle cx="170" cy="200" r="18"/>                    <!-- Kaus Media (delta), mag 2.7 -->
    <circle cx="310" cy="200" r="18"/>                    <!-- Phi Sgr, mag 3.2 -->
    <circle cx="200" cy="360" r="24"/>                    <!-- Kaus Australis (epsilon), mag 1.9 -->
    <circle cx="350" cy="340" r="18"/>                    <!-- Ascella (zeta), mag 2.6 -->
    <circle cx="90"  cy="290" r="18"/>                    <!-- Alnasl (gamma), mag 3.0 (spout tip) -->
    <circle cx="430" cy="250" r="24"/>                    <!-- Nunki (sigma), mag 2.0 (handle top) -->
    <circle cx="430" cy="320" r="18"/>                    <!-- Tau Sgr, mag 3.3 (handle bottom) -->
  </g>
</svg>
