<svg xmlns="http://www.w3.org/2000/svg" viewBox="0 0 512 512" width="512" height="512">
  <g fill="#211922" stroke="#211922" stroke-width="18" stroke-linecap="round">
    <!-- head -> body -->
    <line x1="60" y1="70" x2="130" y2="55"/>              <!-- Pi - Dschubba -->
    <line x1="130" y1="55" x2="140" y2="150"/>            <!-- Dschubba - Antares -->
    <!-- body chain -->
    <line x1="140" y1="150" x2="150" y2="220"/>           <!-- Antares - Tau -->
    <line x1="150" y1="220" x2="140" y2="290"/>           <!-- Tau - Epsilon -->
    <line x1="140" y1="290" x2="170" y2="350"/>           <!-- Epsilon - Mu -->
    <!-- tail curve -->
    <line x1="170" y1="350" x2="260" y2="420"/>           <!-- Mu - Eta -->
    <line x1="260" y1="420" x2="350" y2="430"/>           <!-- Eta - Theta -->
    <line x1="350" y1="430" x2="430" y2="380"/>           <!-- Theta - Kappa -->
    <!-- stinger -->
    <line x1="430" y1="380" x2="445" y2="305"/>           <!-- Kappa - Shaula -->
    <line x1="445" y1="305" x2="450" y2="270"/>           <!-- Shaula - Lesath -->
  </g>
  <g fill="#211922">
    <circle cx="60"  cy="70"  r="18"/>                    <!-- Pi Sco, mag 2.9 -->
    <circle cx="130" cy="55"  r="24"/>                    <!-- Dschubba, mag 2.3 -->
    <circle cx="140" cy="150" r="32"/>                    <!-- Antares, mag 1.0 -->
    <circle cx="150" cy="220" r="18"/>                    <!-- Tau, mag 2.8 -->
    <circle cx="140" cy="290" r="24"/>                    <!-- Epsilon, mag 2.3 -->
    <circle cx="170" cy="350" r="18"/>                    <!-- Mu, mag 3.0 -->
    <circle cx="260" cy="420" r="18"/>                    <!-- Eta, mag 3.3 -->
    <circle cx="350" cy="430" r="24"/>                    <!-- Theta, mag 1.9 -->
    <circle cx="430" cy="380" r="24"/>                    <!-- Kappa, mag 2.4 -->
    <circle cx="445" cy="305" r="24"/>                    <!-- Shaula, mag 1.6 -->
    <circle cx="450" cy="270" r="18"/>                    <!-- Lesath, mag 2.7 -->
  </g>
</svg>
